<?xml version="1.0" encoding="utf-8"?>
<svg version="1.1" xmlns:xlink="http://www.w3.org/1999/xlink" width="693px" height="81px" xmlns="http://www.w3.org/2000/svg">
  <defs>
    <linearGradient gradientUnits="userSpaceOnUse" x1="0" y1="40.5" x2="693" y2="40.5" id="LinearGradient5093">
      <stop id="Stop5094" stop-color="#091a32" offset="0" />
      <stop id="Stop5095" stop-color="#232787" offset="0.06" />
      <stop id="Stop5096" stop-color="#3c43d3" offset="0.46" />
      <stop id="Stop5097" stop-color="#222687" offset="0.92" />
      <stop id="Stop5098" stop-color="#222687" offset="1" />
    </linearGradient>
    <linearGradient gradientUnits="userSpaceOnUse" x1="346.5" y1="0" x2="346.5" y2="81" id="LinearGradient5099">
      <stop id="Stop5100" stop-color="#21257b" offset="0" />
      <stop id="Stop5101" stop-color="#95a8d8" offset="0.49" />
      <stop id="Stop5102" stop-color="#202477" offset="1" />
    </linearGradient>
    <mask fill="white" id="clip5103">
      <path d="M 0 0  L 693 0  L 637.509536784741 81  L 607.280653950954 81  L 601.422343324251 74  L 90.1089956990604 74  L 83.5476839237058 80  L 55 80  L 0 0  Z " fill-rule="evenodd" />
    </mask>
  </defs>
  <g>
    <path d="M 0 0  L 693 0  L 637.509536784741 81  L 607.280653950954 81  L 601.422343324251 74  L 90.1089956990604 74  L 83.5476839237058 80  L 55 80  L 0 0  Z " fill-rule="nonzero" fill="url(#LinearGradient5093)" stroke="none" />
    <path d="M 0 0  L 693 0  L 637.509536784741 81  L 607.280653950954 81  L 601.422343324251 74  L 90.1089956990604 74  L 83.5476839237058 80  L 55 80  L 0 0  Z " stroke-width="2" stroke="url(#LinearGradient5099)" fill="none" mask="url(#clip5103)" />
  </g>
</svg>