<?xml version="1.0" encoding="utf-8" standalone="no"?>
<!DOCTYPE svg PUBLIC "-//W3C//DTD SVG 1.1//EN" "http://www.w3.org/Graphics/SVG/1.1/DTD/svg11-flat-20030114.dtd">
<!-- Created by SVGDeveloper 1.0 -->
<svg width="605" height="500" version="1.1" xmlns="http://www.w3.org/2000/svg"
	xmlns:xlink="http://www.w3.org/1999/xlink">
	<style type="text/css"> .st0{fill:#FFFFFF;} </style>
	<image x="0" y="1" width="604" height="498" xlink:href="/images/123456.jpg" />
	<path name="huhe" class="st0" style="fill: transparent; stroke: transparent;"
		d="M338 258C338 258 348 264 351 265C354 266 362 268 366 266C370 266 380 254 386 249C393 244 394 250 402 246C410 244 418 236 419 232C420 226 422 218 428 217C432 216 438 215 440 213C442 211 445 207 449 210C453 212 452 207 456 206C462 205 464 202 464 202L468 200C468 200 481 206 484 203C488 200 488 184 465 171C442 158 462 168 458 166C456 162 450 165 448 164C445 164 440 172 438 174C436 176 430 170 422 172C416 173 408 176 406 174C404 172 400 170 402 167C405 164 406 165 406 161C406 157 404 152 407 150C410 148 416 116 420 116C422 116 427 118 429 118C431 118 434 116 436 116C438 116 440 120 442 121C444 122 450 112 453 110C456 108 466 104 468 100C468 96 465 90 466 86C468 83 476 62 480 54C484 47 490 44 488 42C487 39 486 30 484 29C482 28 474 32 472 30C472 28 482 18 484 16C484 16 488 9 492 10C496 10 502 10 500 18C498 26 496 36 508 34C518 33 522 36 526 49C530 62 538 57 540 54C543 50 544 45 558 52C558 52 559 54 564 51C569 48 572 44 576 46C581 50 588 60 588 68C586 76 578 84 580 94C580 104 581 110 582 114C584 118 576 112 575 116C574 120 572 147 569 145C566 143 561 142 550 154C539 166 530 176 535 178C540 180 543 177 546 182C546 182 546 190 558 189C568 188 549 194 552 201C554 208 552 219 547 218C542 217 527 212 528 220C529 228 534 224 536 232C538 239 540 254 546 256C552 259 556 250 559 254C562 256 566 276 568 284C571 292 575 283 574 290C572 296 570 304 566 306C562 308 554 304 554 305C552 306 553 310 551 310C549 312 544 312 542 318C541 323 536 316 533 318C530 320 528 322 526 324C524 326 509 313 509 309C509 305 518 298 514 296C511 294 499 298 492 302C484 304 468 301 464 306C460 310 458 317 456 319C454 321 451 328 446 328C442 330 438 330 434 328C430 326 420 318 420 310C420 302 426 280 432 274C440 268 448 272 450 272C453 272 462 264 466 260C468 256 470 236 474 230C478 225 483 209 480 207C477 205 339 258 338 258Z"
		fill="#FF0000" stroke="#FFCC00" fill-opacity="0.5" stroke-opacity="1"
		xmlns="http://www.w3.org/2000/svg" />
	<text id="hutext" x="487.5" y="122" xml:space="preserve" font-family="Microsoft YaHei UI"
		font-size="12" fill="none" fill-opacity="0" stroke="#FFFFFF"> huhehaote</text>
</svg>