<?xml version="1.0" encoding="utf-8"?>
<!-- Generator: Adobe Illustrator 24.3.0, SVG Export Plug-In . SVG Version: 6.00 Build 0)  -->
<svg
    version="1.1"
    viewBox="0 0 671 419"
    xmlns="http://www.w3.org/2000/svg"
    xmlns:xlink="http://www.w3.org/1999/xlink"
    fill="none"
    stroke="#FF0000"
>
    <image
        x="0"
        y="1"
        width="671"
        height="419"
        xlink:href="/images_gray/3dmap1.png"
        fill="none"
        stroke="#FF0000"
    />
    <path d="M472 74" fill="transparent" stroke="none" stroke-opacity="0" />
    <path
        name="赤峰市"
        d="M569 270C568.0806 271.0746 565 259 562 258C560 258 558 259 556 258C555 257 552 254 551 254C550 255 545 262 548 267C550 272 545 271 553 281C553 281 528 284 525 279C521 273 519 271 520 270C521 270 524 264 521 261C518 259 514 257 514 255C515 253 515.3334 250.1539 508.3334 246.1539C501.3334 243.1539 492 249 489 250C487 250 482 244 481 243C480 242 481 235 476 234C476 234 470.9656 225.8094 476 225C483.9744 223.718 488.3013 216.6667 488.7821 207.3718C489.1849 199.5838 500.1821 213.3902 514 207C527.4038 200.8013 531.3334 196.8718 533.3334 194.8718C536.3334 192.8718 539 180 539 178C539 177 571 208 577 211C577 211 576 214 577 216C577 217 586 223 575 230C575 230 575 234 574 235C573 236 569.6731 238.0641 570.6731 240.0641C570.6731 240.0641 575.641 252.7244 582 257C589.2666 261.8859 572 266 569 270Z"
        xmlns="http://www.w3.org/2000/svg" fill="transparent"
    />

    <path
        name="呼伦贝尔市"
        class="hulun"
        fill="transparent"
        d="M472 74C472 74 493 81 495 81C496 81 510 74 512 73C514 72 518 73 520 72C522 71 525 70 525 69C525 67 522 64 523 61C524 59 532 51 532 50C533 48 533 39 540 36C547 33 550 28 547 25C543 22 552 18.5 539 18.5C539 18.5 527.75 17.75 547.75 5.5L560 4C560 4 566 8 566 10C567 12 558 17 559 18C560 18 568 28 572 25C575 23 580 23 588 28C588 28 587 42 601 47C601 47 608 45 612 45C616 46 620 48 624 48C628 48 637 46 640 42C640 42 657 48 660 55C660 55 655 58 660 64C660 64 653 68 652 72C650 74 650 78 649 79C648 80 655 91 653 92C651 94 641 95 644 114C644 114 645 121 637 109C637 109 614 124 612 126C612 126 604 126 603 133L594 136L588 134C588 134 578 138 574 138C570 137 563 135 564 134C565 133 566 131 566 131C566 131 556 122 546 124C546 124 543 133 542 134C540 135 517 117 512 115C508 114 500 114 500 114C500 114 492 121 490 121C488 121 467 115 462 117C458 118 456 120 456 120C456 120 449 116 450 113C450 110 453 109 454 107C456 105 457 98 459 97C461 95 461 95 461 95C460 93 457 89 472 74Z"
    />
    <path
        name="兴安盟"
        fill="transparent"
        d="M610 208C610 208 606 208 603 206C600 204 567 176 559 174C552 172 552 175 550 174C548 174 547 171 549 170C552 168 548 162 549 157C549 157 551 156 552 155C552 154 552 148 548 145C548 145 543 135 542 134C542 134 546 125 546 124C547 124 555 122 566 131C566 131 563 134 564 134C564 135 572 138 574 138C576 138 587 134 588 134C589 134 593 136 594 136C594 136 602 132 603 133C604 134 605 136 612 141C612 141 612 148 619 148C619 148 621 148 624 144C624 144 632 142 630 151C630 151 614 151 623 161C623 161 621 164 620 164C619 164 615 163 618 168C618 168 618 173 615 172C612 172 611 169 610 169C609 169 606 171 604 170C603 169 596 164 594 165C594 165 593 166 594 168C594 168 592 171 596 172C600 172 599 179 602 180C602 180 605 182 605 183C605 185 603 194 605 198C607 201 613 207 610 208Z"
    />

    <path
        name="通辽市"
        fill="transparent"
        d="M586 260C586 260 574 249 572 244C570 240 571 238 572 237C573 236 574 235 574 233C574 231 574 230 576 229C578 227 581 226 581 224C581 222 580 218 577 216C575 214 578 212 576 210C575 208 568 204 564 200C560 196 543 182 541 180C539 178 537 175 540 175C542 175 544 175 545 174C546 173 547 172 548 172C549 171 548 175 551 174C554 174 555 166 604 207C604 207 619 212 631 205C631 205 636 209 639 213C639 213 638 217 643 221C643 221 640.5 230.875 651 235.25C654.667 236.7779 652 240 652 241C652 242 647 240 642 247C637 254 626 246 624 248C622 250 618 250 615 249C612 248 608 256 605 257C602 257 599 254 596 256C594 258 590.125 261.5 588.125 261.5C587.125 260.5 586 260 586 260Z"
    />
    <path
        name="锡林郭勒盟"
        fill="transparent"
        d="M343 222C341.5862 222.0336 353 225 355 227C357 229 368 245 377 248C387 252 389 260 393 261C397 262 396 254 406 256C406 256 412 260 413 261C415 261 426 255 436 258C436 258 438 267 438 271C438 276 446 272 448 273C449 273 455 265 461 263C461 263 465 268 467 267C469 266 471 261 474 263C476 264 476 266 478 266C480 266 484 266 484 265C485 264 488 255 488 253C488 250 481 245 481 243C481 242 480 235 476 234C476 234 471 228 474 226C476 225 483 223 486 219C488 214 488 205 490 205C492 205 510 217 534 194C534 194 539 181 539 177C538 174 542 175 544 175C546 174 547 173 548 171C549 170 550 169 550 168C550 166 548 159 549 158C550 157 551 157 552 155C553 153 548 145 547 145C547 145 543 150 529 148C515 146 512 147 503 149C503 149 495 148 493 147C492 147 493 155 474 154C474 154 470 165 464 169C458 172 446 174 440 174C433 174 428 174 428 175C427 175 425 183 420 184C416 186 406 190 403 189C400 189 390 186 387 185C384 184 381 180 379 180C378 179 371 179 369 179C367 179 355 190 355 195C356 200 358 205 364 207C364 207 367 211 367 212C366 214 348 222 343 222Z"
    />
    <path
        name="乌兰察布市"
        fill="transparent"
        d="M327 237C327 237 335 246 336 250C337 253 337 259 347 265C347 265 349 273 349 276C349 280 354 276 357 277C359 279 364 282 364 284C364 287 363 293 365 297C368 301 369 306 369 308C369 311 373 305 376 308C380 312 381 309 383 308C385 308 385 304 388 305C391 305 397 307 398 307C400 307 410 304 411 302C413 301 414 300 413 298C412 295 413 293 413 292C414 291 411 289 412 286C412 283 414 278 413 277C413 275 417 276 418 275C419 274 417 272 418 269C419 267 419 266 422 264C425 262 426 262 426 260C426 258 427 257 424 258C421 258 415 261 414 261C412 261 407 256 406 256C404 256 399 255 396 260C393 264 389 257 387 256C386 254 380 249 376 248C371 246 363 237 362 236C361 234 356 228 354 227C352 226 344 222 343 222C342 223 338 228 336 230C334 232 327 236 327 237Z"
    />
    <path
        name="包头市"
        fill="transparent"
        d="M304.1667 243.4295C302.4784 244.5017 305 249 303 251C301 254 295.1667 262.2693 304.1667 268.2693C304.1667 268.2693 306 277 307 281C309 284 309 284 309 286C308 289 307 293 308 293C310 293 311 292 314 293C316 293 324 301 327 303C329 305 334 304 335 303C337 302 337 302 336 298C334 294 331 294 330 290C330 287 327 284 327 282C327 280 327 280 328 279C328 277 326 277 326 275C326 273 329 271 331 271C334 272 340 273 344 274C347 276 348 276 348 275C348 275 348 267 346 265C344 263 338 259 337 256C336 252 334 247 331 243C328 240 328.7628 238.3398 326.7628 237.3398C324.7628 236.3398 325.2372 235.5385 323.2372 236.5385C321.2372 236.5385 305.1667 242.4295 304.1667 243.4295Z"
    />
    <path
        name="呼和浩特市"
        fill="transparent"
        d="M346 322C344.5522 320.6202 347 317 346 314C345 311 339 306 338 303C338 303 336 298 335 296C333 294 331 292 330 289C329 286 328 285 327 283C327 282 328 280 328 279C328 278 325 276 326 275C327 274 328 270 331 271C333 272 342 273 344 274C346 275 348 275 349 276C349 276 349 278 350 278C351 278 356 276 357 277C358 278 364 282 364 284C364 285 363 294 365 297C366 299 369 307 369 309C369 309 360 320 358 322C355 323 347 323 346 322Z"
    />
    <path
        name="鄂尔多斯市"
        fill="transparent"
        d="M289 345C288 346 279 353 278 357C276 362 277 371 275 370C273 369 271 366 270 368C269 369 269 377 267 378C264 378 253 380 251 379C248 378 234 366 227 364C221 362 215 362 213 360C211 358 209 355 213 350C217 345 228 334 228 332C229 330 230 316 229 315C229 314 226 320 225 320C224 320 223 317 223 316C224 315 231 298 236 294C241 290 253 285 254 285C256 285 263 284 265 286C266 287 284 297 293 297C293 297 295 297 296 292C297 288 300 291 300 291C301 290 303 294 304 295C306 295 305 294 308 293C310 293 313 292 315 294C317 295 321 298 323 300C326 302 328 304 330 304C333 304 336 302 336 302C337 302 338 302 338 303C339 304 343 309 344 311C346 314 346 315 346 318C345 321 346 323 345 325C343 327 340 328 340 328C339 327 338 324 337 324C335 324 333 324 332 325C331 326 331 329 328 330C324 330 318 331 317 330C315 329 312 330 311 331C309 333 307 332 306 332C305 331 304 334 303 336C301 338 296 343 295 343C293 344 289 345 289 345Z"
    />
    <path
        name="巴彦淖尔市"
        fill="transparent"
        d="M195 257C193.0394 257.3951 193 265 193 268C194 271 193 275 193 277C193 279 212 287 215 289C218 291 214.4959 292.8397 214.6234 295.0721C214.7035 296.4743 217 298 218 298C220 298 225 297 226 299C228 302 226.1635 308.4904 227.1635 306.4904C228.1635 304.4904 232 298 234 295C237 293 241 290 246 288C250 286 259 283 263 285C267 288 284 296 288 296C292 297 293 298 294 296C294 296 296 289 298 290C301 291 301 291 303 293C304 295 306 295 307 294C308 292 309 288 309 286C309 284 308 283 307 281C306 279 304 275 304 271C304 267 301 267 300 265C299 262 297 260 299 257C300 254 302 252 303 249C303 246 303 245 299 245C295 244 267 240 256 241C245 241 212 254 195 257Z"
        xmlns="http://www.w3.org/2000/svg"
    />
    <path
        name="阿拉善盟"
        fill="transparent"
        class="hulun"
        d="M12 224C11.02147 224.2061 13 251 12 252C11 254 6 257 7 259C8 261 15 270 15 274C16 277 16 282 17 282C18 281 22 278 23 278C23 279 25 283 26 281C27 280 31 279 33 281C33 281 36 279 41 278C47 277 56 275 58 277C61 279 64 282 62 284C61 287 59 292 57 294C55 295 42 302 41 302C40 302 39 304 42 305C42 305 52 306 53 309C54 311 54 315 56 317C58 318 63 316 64 318C65 319 63 326 65 328C67 330 71 329 72 331C73 333 73 341 78 341C83 341 90 339 92 336C93 334 91 330 93 328C95 327 105 325 109 327C114 329 115 331 119 331C123 330 132 323 136 323C141 322 150 320 151 323C151 325 152 333 153 335C154 337 132 353 127 353C122 354 128 357 128 360C128 363 117 363 122 367C126 371 133 382 138 381C143 381 179 378 182 375C185 373 185 367 187 364C189 362 191 361 192 359C192 356 192 352 193 348C195 345 198 337 201 335C204 333 216 328 218 327C218 327 223 317 225 311C225 311 230 298 223 298C216 299 214 298 214 294C214 291 218 292 217 290C215 288 203 284 198 281C193 278 193 277 193 270C193 263 194 258 193 259C191 260 190 263 188 263C186 262 178 262 178 261C177 259 179 256 176 255C174 255 164 256 162 256C159 257 144 246 140 246C136 245 129 243 125 243C121 243 116 237 112 235C108 232 98 228 76 231C54 234 16 223 12 224Z"
    />


    <path
        name="乌海市"
        fill="transparent"
        class="wuhai"
        d="M224 335C224 335 222 330 222 328C221 326 221 322 221 320C222 318 222 317 223 317C223 316 224 320 225 320L228.8462 314.9039C228.8462 315.9039 230 329 228 332C226 336 225 337 224 335Z"
        xmlns="http://www.w3.org/2000/svg"
    />

</svg>