<?xml version="1.0" encoding="utf-8"?>
<!-- Generator: Adobe Illustrator 22.0.0, SVG Export Plug-In . SVG Version: 6.00 Build 0)  -->
<svg version="1.1" id="图层_1" xmlns="http://www.w3.org/2000/svg" xmlns:xlink="http://www.w3.org/1999/xlink" x="0px" y="0px"
	 viewBox="0 0 693 81" style="enable-background:new 0 0 693 81;" xml:space="preserve">
<style type="text/css">
	.st0{fill:url(#SVGID_1_);}
	.st1{fill:#FFFFFF;filter:url(#Adobe_OpacityMaskFilter);}
	.st2{mask:url(#clip5103_1_);fill:none;stroke:url(#SVGID_2_);stroke-width:2;}
</style>
<g>
	
		<linearGradient id="SVGID_1_" gradientUnits="userSpaceOnUse" x1="0" y1="41.5" x2="693" y2="41.5" gradientTransform="matrix(1 0 0 -1 0 82)">
		<stop  offset="0" style="stop-color:#011C3B"/>
		<stop  offset="6.000000e-02" style="stop-color:#002144"/>
		<stop  offset="0.501" style="stop-color:#014D88"/>
		<stop  offset="0.92" style="stop-color:#022144"/>
		<stop  offset="1" style="stop-color:#011C3B"/>
	</linearGradient>
	<path class="st0" d="M0,0h693l-55.5,81h-30.2l-5.9-7H90.1l-6.6,6H55L0,0z"/>
	<defs>
		<filter id="Adobe_OpacityMaskFilter" filterUnits="userSpaceOnUse" x="-1.9" y="-1" width="696.8" height="83">
			<feColorMatrix  type="matrix" values="1 0 0 0 0  0 1 0 0 0  0 0 1 0 0  0 0 0 1 0"/>
		</filter>
	</defs>
	<mask maskUnits="userSpaceOnUse" x="-1.9" y="-1" width="696.8" height="83" id="clip5103_1_">
		<path class="st1" d="M0,0h693l-55.5,81h-30.2l-5.9-7H90.1l-6.6,6H55L0,0z"/>
	</mask>
	
		<linearGradient id="SVGID_2_" gradientUnits="userSpaceOnUse" x1="346.4981" y1="82" x2="346.4981" y2="1" gradientTransform="matrix(1 0 0 -1 0 82)">
		<stop  offset="0" style="stop-color:#00294E"/>
		<stop  offset="0.5003" style="stop-color:#038FDF"/>
		<stop  offset="1" style="stop-color:#00294E"/>
	</linearGradient>
	<path class="st2" d="M0,0h693l-55.5,81h-30.2l-5.9-7H90.1l-6.6,6H55L0,0z"/>
</g>
</svg>
